<?xml version="1.0" encoding="UTF-8"?>
<svg width="241px" height="336px" viewBox="0 0 241 336" version="1.1" xmlns="http://www.w3.org/2000/svg" xmlns:xlink="http://www.w3.org/1999/xlink">
    <title>icon</title>
    <g id="icon" stroke="none" stroke-width="1" fill="none" fill-rule="evenodd">
        <g id="ip" fill-rule="nonzero">
            <path d="M78,67 L78,336 L123.138462,336 L123.138462,262.206331 C132.542308,265.675264 143.2,267.567409 154.798077,267.567409 L167.336538,267.567409 C212.788462,267.567409 241,238.554513 241,194.089097 L241,140.162954 C241,95.6975381 212.788462,67 167.336538,67 L78,67 Z M167.336538,112.096131 C183.95,112.096131 196.175,124.395076 196.175,141.424385 L196.175,192.827667 C196.175,209.856975 183.95,222.15592 167.336538,222.15592 L151.35,222.15592 C134.736538,222.15592 123.138462,209.856975 123.138462,192.827667 L123.138462,112.096131 L167.336538,112.096131 Z" id="p" fill="#FFFFFF"></path>
            <path d="M22.5,0 C10.0735931,2.28269391e-15 -1.52179594e-15,10.0735931 0,22.5 C1.52179594e-15,34.9264069 10.0735931,45 22.5,45 C34.9264069,45 45,34.9264069 45,22.5 C45,10.0735931 34.9264069,-2.28269391e-15 22.5,0 Z" id="0" fill="#FBD914"></path>
            <polygon id="1" fill="#FFFFFF" points="45 68 0 68 0 268 45 268"></polygon>
        </g>
    </g>
</svg>